<svg xmlns="http://www.w3.org/2000/svg" width="256" height="256" viewBox="0 0 256 256">
  <defs>
    <linearGradient id="bg" x1="0%" y1="0%" x2="100%" y2="100%">
      <stop offset="0%" style="stop-color:#1a1a2e"/>
      <stop offset="100%" style="stop-color:#16213e"/>
    </linearGradient>
  </defs>
  <rect width="256" height="256" rx="48" fill="url(#bg)"/>
  <rect x="32" y="48" width="192" height="108" rx="8" fill="#e94560" opacity="0.8"/>
  <rect x="40" y="56" width="176" height="92" rx="4" fill="#1a1a2e"/>
  <circle cx="52" cy="48" r="5" fill="#e94560"/>
  <circle cx="80" cy="48" r="5" fill="#e94560"/>
  <circle cx="108" cy="48" r="5" fill="#e94560"/>
  <circle cx="136" cy="48" r="5" fill="#e94560"/>
  <circle cx="164" cy="48" r="5" fill="#e94560"/>
  <circle cx="192" cy="48" r="5" fill="#e94560"/>
  <circle cx="52" cy="156" r="5" fill="#e94560"/>
  <circle cx="80" cy="156" r="5" fill="#e94560"/>
  <circle cx="108" cy="156" r="5" fill="#e94560"/>
  <circle cx="136" cy="156" r="5" fill="#e94560"/>
  <circle cx="164" cy="156" r="5" fill="#e94560"/>
  <circle cx="192" cy="156" r="5" fill="#e94560"/>
  <rect x="48" y="90" width="160" height="28" rx="14" fill="#e94560" opacity="0.9"/>
  <line x1="68" y1="104" x2="148" y2="104" stroke="#ffffff" stroke-width="3" stroke-linecap="round" opacity="0.9"/>
  <line x1="68" y1="110" x2="130" y2="110" stroke="#ffffff" stroke-width="2" stroke-linecap="round" opacity="0.6"/>
  <path d="M128 184 L128 208 M112 196 L128 208 L144 196" stroke="#e94560" stroke-width="4" fill="none" stroke-linecap="round" stroke-linejoin="round"/>
  <circle cx="128" cy="220" r="16" fill="none" stroke="#0f3460" stroke-width="3"/>
  <ellipse cx="128" cy="220" rx="8" ry="16" fill="none" stroke="#0f3460" stroke-width="2"/>
  <line x1="112" y1="220" x2="144" y2="220" stroke="#0f3460" stroke-width="2"/>
  <path d="M56 130 Q64 140 72 130" stroke="#e94560" stroke-width="2" fill="none" stroke-linecap="round" opacity="0.5"/>
  <path d="M48 125 Q60 145 72 125" stroke="#e94560" stroke-width="2" fill="none" stroke-linecap="round" opacity="0.3"/>
</svg>
